PathFileType	4	(X/Y/Z)	s04c0101.trc
DataRate	CameraRate	NumFrames	NumMarkers	Units	OrigDataRate	OrigDataStartFrame	OrigNumFrames
200	200	4	51	mm	200	1250	2000
Frame#	Time	racr			lacr			c7			jug			rlel			rdr			llel			ldr			s2			lic			ric			lasi			rasi			rpsi			lpsi			rgt			lgt			rth1			rth2			rth3			rth4			rlfc			rmfc			rsh1			rsh2			rsh3			rsh4			rlmal			rmmal			rcal			rtoe			rmt5			lth1			lth2			lth4			lth3			llfc			lmfc			lsh1			lsh2			lsh3			lsh4			llmal			lmmal			lcal			ltoe			lmt1			lmt5			SBIKE			LBIKE			RBIKE			
		X1	Y1	Z1	X2	Y2	Z2	X3	Y3	Z3	X4	Y4	Z4	X5	Y5	Z5	X6	Y6	Z6	X7	Y7	Z7	X8	Y8	Z8	X9	Y9	Z9	X10	Y10	Z10	X11	Y11	Z11	X12	Y12	Z12	X13	Y13	Z13	X14	Y14	Z14	X15	Y15	Z15	X16	Y16	Z16	X17	Y17	Z17	X18	Y18	Z18	X19	Y19	Z19	X20	Y20	Z20	X21	Y21	Z21	X22	Y22	Z22	X23	Y23	Z23	X24	Y24	Z24	X25	Y25	Z25	X26	Y26	Z26	X27	Y27	Z27	X28	Y28	Z28	X29	Y29	Z29	X30	Y30	Z30	X31	Y31	Z31	X32	Y32	Z32	X33	Y33	Z33	X34	Y34	Z34	X35	Y35	Z35	X36	Y36	Z36	X37	Y37	Z37	X38	Y38	Z38	X39	Y39	Z39	X40	Y40	Z40	X41	Y41	Z41	X42	Y42	Z42	X43	Y43	Z43	X44	Y44	Z44	X45	Y45	Z45	X46	Y46	Z46	X47	Y47	Z47	X48	Y48	Z48	X49	Y49	Z49	X50	Y50	Z50	X51	Y51	Z51	
1250	6.2500	509.399734	1374.055791	-134.806033	511.042722	1366.035903	-399.479909	471.086101	1430.389803	-268.686084	448.543278	1269.985308	-277.100148	469.517464	1081.467902	12.096649	685.037274	915.464602	-105.888667	469.728785	1101.926901	-546.934622	684.833417	913.327132	-482.270589	-81.638936	1179.489225	-277.398364	74.501057	1209.687317	-432.774822	69.593564	1194.215542	-114.893285	112.480595	1161.787370	-388.516155	113.187726	1155.997848	-141.045914	-56.851161	1225.147230	-232.471555	-60.211495	1229.797224	-306.654529	29.014286	1126.162513	-102.873359	44.649757	1120.656910	-466.264296	128.312984	990.764422	-89.691431	192.813151	930.055292	-98.753922	220.096128	849.857422	-105.888823	220.876368	950.666621	-112.435687	290.219362	720.752148	-130.546945	263.629241	696.013199	-240.540058	256.764553	600.646865	-98.829478	271.656530	506.819713	-115.227446	234.163295	429.134736	-120.000964	302.424218	505.846747	-140.113253	223.418774	274.399996	-124.109980	243.086357	285.603536	-209.563114	158.802921	237.648063	-158.775037	459.736616	240.768698	-165.179955	397.580622	211.923046	-106.181387	115.977401	1058.094140	-475.526360	199.802713	1036.820996	-480.315891	217.257547	1064.864762	-465.514787	263.168007	974.739112	-490.570836	375.870644	868.248139	-472.295639	402.649620	838.529657	-363.768332	310.785686	772.545310	-493.765853	263.160383	705.187880	-465.012090	183.870028	664.326050	-460.786241	283.322804	690.145105	-435.559180	73.584121	571.516749	-449.240897	72.880736	575.685436	-361.352331	-4.009039	600.188737	-405.373814	227.610922	403.946123	-414.020019	156.839173	430.189850	-363.221919	148.011491	419.172964	-473.950022	-186.991743	937.419589	-283.631836	-18.252096	79.645945	-484.437581	-18.192102	79.221768	-83.662991	
1251	6.2550	510.223355	1374.877909	-136.139821	511.900878	1367.584444	-400.017660	471.409034	1431.364997	-269.684687	450.185183	1270.827640	-278.637043	471.390408	1082.932610	12.267756	685.688345	915.158506	-105.558285	470.793209	1102.862445	-545.584760	684.883988	914.285353	-481.724676	-81.057158	1180.607488	-275.651353	73.881512	1211.954395	-431.842456	70.966392	1195.051408	-113.222358	111.927937	1163.790363	-387.668808	114.889713	1157.309184	-139.709706	-55.574266	1225.850021	-230.747649	-59.263594	1231.169588	-304.965505	29.736569	1126.051380	-102.269909	44.872315	1125.025960	-466.098896	125.800257	988.522361	-88.445197	188.607274	926.156538	-96.915446	213.665007	845.176156	-104.153069	217.242613	945.904557	-110.730699	281.025355	714.479243	-128.831138	254.122993	689.914620	-238.655982	248.846417	595.006904	-97.584138	263.159377	500.773521	-113.892409	226.044244	422.916194	-118.995607	293.973468	500.146618	-138.658633	216.157488	267.951901	-123.727514	236.440856	279.181642	-209.018606	151.911316	231.677938	-157.895107	452.645697	231.671279	-165.387686	390.308438	203.705370	-106.267000	116.774643	1063.124971	-475.539383	200.966699	1043.384053	-480.301704	217.884136	1071.724473	-465.408314	265.484957	982.492546	-490.877701	380.584776	877.914058	-473.181720	408.614607	848.259420	-364.690564	316.508914	781.918130	-494.068102	269.304480	714.181201	-465.158992	190.306172	672.890342	-460.857081	289.624478	699.296799	-435.829416	80.573339	579.449508	-449.085412	79.794316	583.346742	-361.353081	2.897894	607.572498	-405.090493	235.030980	412.235494	-413.827174	164.408882	438.429459	-363.356696	155.462175	427.282832	-473.800157	-186.977028	937.481251	-283.494684	-18.252700	79.670967	-484.431459	-18.183194	79.212127	-83.641256	
1252	6.2600	511.055477	1375.514126	-137.336858	512.829797	1368.797438	-400.408658	471.706151	1432.241460	-270.445991	451.714510	1271.600557	-280.034747	473.239057	1084.227592	12.226927	686.383485	914.779493	-105.308039	471.440512	1104.028985	-544.694139	684.788482	915.322279	-481.584243	-80.469092	1181.671288	-274.077979	73.158248	1213.945891	-431.051080	72.442071	1195.251606	-112.152950	111.466095	1165.716788	-387.249527	116.302694	1157.631605	-139.109257	-54.544804	1226.411322	-228.952032	-59.031103	1232.308354	-302.829255	30.472201	1125.824778	-101.774497	44.958771	1129.143280	-465.898799	123.118357	986.542037	-87.125190	184.457483	922.655933	-95.066660	207.092888	840.933194	-102.366694	213.549872	941.563733	-108.873499	271.993547	708.998389	-126.857294	245.147682	684.546328	-236.717393	240.979860	589.745637	-96.327378	254.784785	495.393945	-112.220562	217.649166	417.227317	-118.323163	285.799052	494.662749	-136.876877	208.577041	262.135885	-123.417675	229.371355	273.568883	-208.522309	144.578189	226.709314	-157.962749	445.327944	223.409183	-165.236774	382.733213	196.110997	-106.024405	117.512952	1067.851346	-475.643856	201.794621	1049.383128	-479.736134	218.402083	1078.410715	-465.329535	267.728326	990.339013	-491.328368	385.513377	887.807136	-473.217133	414.855600	859.187299	-362.876701	322.165649	791.332862	-494.158843	275.659961	723.325576	-465.406190	197.234368	681.338578	-460.680834	296.204368	708.544862	-436.154390	88.104209	586.942002	-448.926727	87.068728	591.058501	-361.400801	10.133024	614.831714	-405.081399	243.222657	419.813651	-414.080823	172.513680	446.077254	-363.730610	164.059746	435.287386	-474.168845	-186.946321	937.526389	-283.365403	-18.264961	79.757112	-484.426832	-18.180541	79.217067	-83.639346	
1253	6.2650	511.673965	1376.267174	-138.605616	513.605854	1369.779227	-400.700329	471.980647	1432.987698	-270.987982	453.013359	1272.269066	-281.045697	474.995922	1085.334994	11.917352	687.006957	914.309912	-105.143202	471.289553	1105.031748	-544.253434	684.499768	916.344832	-481.323711	-80.018230	1182.620648	-274.040266	72.108196	1215.733259	-430.252649	73.896637	1195.390763	-111.528046	110.933806	1167.565493	-386.927044	117.553722	1157.751685	-138.976140	-53.615593	1226.841828	-227.215032	-58.615438	1232.847149	-301.290653	31.167691	1125.549521	-101.329722	44.953759	1132.935191	-465.660206	120.392975	984.832495	-85.250194	180.380343	919.745600	-93.045575	200.920594	837.185813	-100.233326	209.748140	938.029757	-105.863751	263.333498	704.014879	-124.822356	236.645896	679.974316	-234.782169	233.217692	584.879178	-95.063699	246.211927	490.455490	-110.583531	209.340925	412.496025	-117.059118	277.482111	489.974357	-135.250985	200.764138	257.073677	-123.230643	222.229337	268.567693	-208.069203	136.873167	222.546489	-158.087232	437.609519	215.573466	-165.045956	374.746095	188.952167	-105.879533	118.131152	1072.469405	-475.805670	202.786422	1055.646818	-479.852526	218.923266	1085.118044	-465.651697	269.914258	998.028523	-491.831569	390.088388	897.612765	-473.767886	419.401162	868.987224	-365.024260	327.897743	800.990515	-494.747860	282.151727	732.400560	-465.657414	204.220750	689.523454	-460.159796	302.954752	717.707413	-436.561037	95.991653	593.964141	-448.610841	94.433036	597.322730	-361.051406	18.174392	621.552883	-404.679906	251.913542	426.942360	-414.142973	181.352924	453.111505	-363.969916	172.850348	442.671345	-474.462087	-186.927790	937.584999	-283.278089	-18.270538	79.822468	-484.389844	-18.184028	79.234157	-83.631949	
